<svg xmlns="http://www.w3.org/2000/svg" xmlns:xlink="http://www.w3.org/1999/xlink" viewBox="0 0 166.5 166.5"><defs><linearGradient id="a" x1="136.03" y1="636.28" x2="136.03" y2="631.66" gradientTransform="matrix(36, 0, 0, -36, -4513, 23207)" gradientUnits="userSpaceOnUse"><stop offset="0" stop-color="#fb6361"/><stop offset="1" stop-color="#ed3e45"/></linearGradient></defs><title>HUAWEI AppGallery logo - Brandlogos.net</title><path d="M347.47,300.75c-34.21,0-46.72,12.51-46.72,46.71v73.08c0,34.2,12.51,46.71,46.72,46.71h73c34.21,0,46.74-12.51,46.74-46.71V347.46c0-34.2-12.51-46.71-46.72-46.71Z" transform="translate(-300.75 -300.75)" style="fill:url(#a)"/><path d="M373.38,397.32h6.68l-3.35-7.8Zm-1.65,3.93-2,4.54h-4.52l9.6-21.78h3.9l9.56,21.78h-4.64l-2-4.54Zm72.66,4.52h4.36V384h-4.36ZM427,396.42h8v-4h-8V388h11.68v-4h-16v21.77h16.46v-4H427ZM409.68,399l-4.95-15h-3.61l-4.95,15-4.81-15h-4.71l7.6,21.78h3.66l5-14.31,5,14.31h3.69L419.09,384H414.5Zm-51.11-2.51c0,3.54-1.76,5.44-5,5.44s-5-1.95-5-5.59V384h-4.42v12.46c0,6.13,3.41,9.65,9.34,9.65s9.43-3.58,9.43-9.83V384h-4.42ZM333.66,384h4.42v21.8h-4.42v-8.85h-10v8.85h-4.42V384h4.42v8.79h10Z" transform="translate(-300.75 -300.75)" style="fill:#fff"/><path d="M384,356.25a27.78,27.78,0,0,1-27.75-27.75h3.92a23.83,23.83,0,0,0,47.66,0h3.92A27.78,27.78,0,0,1,384,356.25" transform="translate(-300.75 -300.75)" style="fill:#fff"/></svg>