<?xml version="1.0" standalone="no"?>
<!DOCTYPE svg PUBLIC "-//W3C//DTD SVG 20010904//EN"
 "http://www.w3.org/TR/2001/REC-SVG-20010904/DTD/svg10.dtd">
<svg version="1.0" xmlns="http://www.w3.org/2000/svg"
 width="3170.000000pt" height="1072.000000pt" viewBox="0 0 3170.000000 1072.000000"
 preserveAspectRatio="xMidYMid meet">

<g transform="translate(0.000000,1072.000000) scale(0.100000,-0.100000)"
fill="#000000" stroke="none">
<path d="M3240 10650 c-715 -66 -1345 -311 -1865 -725 -143 -114 -292 -253
-400 -375 -107 -119 -276 -340 -338 -439 l-37 -61 2970 0 c1783 0 2970 4 2970
9 0 13 -149 219 -238 331 -107 133 -345 367 -487 481 -532 425 -1116 671
-1817 765 -134 18 -618 27 -758 14z"/>
<path d="M8040 7220 l0 -3320 810 0 810 0 0 143 c0 78 -9 945 -20 1927 -12
982 -20 1827 -18 1879 l3 95 1270 -2022 1270 -2022 738 0 737 0 -2 3318 -3
3317 -804 3 c-443 1 -808 -1 -811 -5 -4 -5 8 -845 26 -1868 18 -1023 34 -1962
36 -2087 2 -146 0 -224 -6 -218 -5 5 -586 947 -1291 2092 l-1282 2083 -731 3
-732 2 0 -3320z"/>
<path d="M14890 7220 l0 -3321 1378 4 c1221 3 1393 5 1522 20 377 45 684 115
980 223 241 89 576 277 775 434 103 81 287 261 379 371 381 452 610 1054 688
1809 20 192 17 738 -6 925 -97 824 -391 1472 -900 1981 -273 273 -562 467
-889 598 -387 156 -821 239 -1387 266 -113 5 -730 10 -1372 10 l-1168 0 0
-3320z m2780 1806 c344 -67 579 -185 790 -398 245 -248 406 -620 454 -1054 42
-367 24 -713 -51 -1024 -138 -571 -489 -957 -998 -1095 -207 -57 -213 -57
-767 -62 l-518 -4 0 1824 c0 1003 3 1827 8 1831 4 4 230 6 502 3 403 -4 511
-8 580 -21z"/>
<path d="M21667 10533 c-4 -3 -7 -1497 -7 -3320 l0 -3313 1845 0 1845 0 0 745
0 745 -1030 0 -1030 0 0 570 0 570 1000 0 1000 0 -2 743 -3 742 -997 3 -998 2
0 515 0 515 1030 0 1030 0 0 745 0 745 -1838 0 c-1011 0 -1842 -3 -1845 -7z"/>
<path d="M26540 7221 l0 -3321 810 0 810 0 0 1070 c0 850 3 1070 13 1069 6 0
356 -481 776 -1070 l764 -1069 968 0 969 0 -313 392 c-172 216 -571 717 -886
1113 -316 396 -580 727 -588 737 -13 15 -6 18 84 38 817 184 1395 829 1523
1701 100 680 -76 1359 -483 1865 -89 110 -264 275 -375 354 -350 249 -718 359
-1407 421 -88 8 -539 13 -1397 16 l-1268 5 0 -3321z m2570 1801 c337 -72 565
-232 681 -477 47 -100 67 -177 79 -302 24 -256 -41 -515 -174 -690 -138 -182
-397 -309 -701 -343 -49 -5 -258 -10 -462 -10 l-373 0 0 926 0 926 428 -5
c380 -4 438 -7 522 -25z"/>
<path d="M210 8154 c-37 -96 -99 -407 -126 -634 -23 -183 -26 -650 -6 -815 73
-600 300 -1139 678 -1610 299 -372 741 -716 1209 -941 881 -423 1897 -496
2771 -201 1028 347 1822 1158 2157 2202 115 356 167 702 167 1099 0 315 -23
517 -91 799 l-31 127 -900 0 c-716 0 -899 -3 -895 -12 117 -263 160 -396 198
-613 30 -167 33 -508 6 -674 -93 -577 -379 -1044 -817 -1338 -437 -293 -1024
-362 -1547 -182 -651 224 -1101 807 -1209 1564 -23 161 -23 449 0 609 29 199
102 448 172 588 13 26 24 50 24 53 0 3 -394 5 -875 5 l-875 0 -10 -26z"/>
<path d="M12037 2404 c-482 -87 -854 -476 -933 -975 -24 -152 -15 -380 20
-509 56 -200 181 -408 332 -549 316 -295 751 -386 1171 -246 471 158 763 544
799 1060 l7 95 -742 0 -741 0 0 -190 0 -190 500 0 c275 0 500 -3 500 -8 0 -4
-20 -41 -44 -82 -139 -236 -373 -370 -646 -370 -110 0 -208 23 -315 75 -159
77 -284 203 -365 369 -163 330 -93 692 183 952 154 146 323 210 527 201 186
-8 321 -70 471 -214 l86 -83 232 0 232 0 -27 48 c-99 170 -262 354 -389 437
-200 131 -421 196 -664 194 -64 0 -151 -7 -194 -15z"/>
<path d="M14250 1240 l0 -1140 205 0 205 0 2 461 3 462 315 -444 c173 -243
322 -451 330 -461 14 -17 33 -18 266 -16 l251 3 -303 405 c-167 223 -303 407
-304 410 0 3 24 11 54 17 140 30 295 123 380 231 100 125 146 267 146 447 0
364 -146 602 -433 707 -139 51 -226 58 -694 58 l-423 0 0 -1140z m835 745
c217 -46 333 -204 304 -414 -16 -113 -81 -201 -187 -255 -91 -46 -155 -58
-354 -63 l-188 -5 0 376 0 376 178 0 c117 0 200 -5 247 -15z"/>
<path d="M16623 1548 c3 -720 6 -842 20 -900 76 -318 300 -527 621 -579 103
-16 280 -7 376 21 223 64 400 222 484 433 56 140 56 148 56 1038 l0 819 -199
0 -200 0 -3 -807 c-3 -799 -4 -809 -25 -872 -61 -181 -192 -270 -378 -259
-182 12 -304 128 -334 318 -7 41 -11 350 -11 843 l0 777 -206 0 -205 0 4 -832z"/>
<path d="M19130 1240 l0 -1140 205 0 205 0 0 434 0 434 243 5 c275 5 334 15
487 89 68 33 101 57 165 122 132 133 185 272 185 485 0 146 -19 234 -71 340
-72 147 -206 258 -381 317 -138 47 -222 54 -645 54 l-393 0 0 -1140z m811 746
c127 -27 207 -85 251 -181 18 -40 22 -68 22 -137 0 -76 -3 -93 -30 -144 -34
-68 -99 -122 -178 -150 -41 -15 -90 -19 -258 -22 l-208 -3 0 325 0 326 168 0
c105 0 192 -6 233 -14z"/>
<path d="M1730 1050 l0 -140 4095 0 4095 0 0 140 0 140 -4095 0 -4095 0 0
-140z"/>
<path d="M21790 1050 l0 -140 4095 0 4095 0 0 140 0 140 -4095 0 -4095 0 0
-140z"/>
</g>
</svg>
